<?xml version="1.0" encoding="UTF-8" standalone="no"?>
<svg width="200" height="200" viewBox="0 0 200 200" 
  xmlns="http://www.w3.org/2000/svg" 
  xmlns:svg="http://www.w3.org/2000/svg" 
  xmlns:xlink="http://www.w3.org/1999/xlink">
  
  <!-- Background circle -->
  <circle cx="100" cy="100" r="90" fill="#f8f9fa" stroke="#dee2e6" stroke-width="2" />
  
  <!-- Pill/Capsule icon -->
  <g transform="matrix(0.78,0,0,0.78,44,44)">
    <path d="M32,96C14.33,96 0,81.67 0,64L0,32C0,14.33 14.33,0 32,0L64,0C81.67,0 96,14.33 96,32L96,64C96,81.67 81.67,96 64,96L32,96zM32,16C23.16,16 16,23.16 16,32L16,64C16,72.84 23.16,80 32,80L64,80C72.84,80 80,72.84 80,64L80,32C80,23.16 72.84,16 64,16L32,16z" 
    fill="#0d6efd" fill-opacity="0.7"/>
    <path d="M113.54,143.27C99.71,157.1 77.3,157.1 63.47,143.27L16.73,96.54C2.9,82.7 2.9,60.3 16.73,46.46C30.57,32.63 52.97,32.63 66.81,46.46L113.54,93.2C127.37,107.03 127.37,129.44 113.54,143.27zM77.33,57.02C75.46,55.15 72.47,55.15 70.59,57.02L29.74,97.88C27.87,99.76 27.87,102.74 29.74,104.62C31.62,106.49 34.6,106.49 36.48,104.62L77.33,63.76C79.21,61.89 79.21,58.9 77.33,57.02z" 
    fill="#0d6efd" fill-opacity="0.9"/>
  </g>
  
  <!-- Text -->
  <text x="100" y="165" text-anchor="middle" font-family="Arial, sans-serif" font-size="14" fill="#6c757d">دليل الأدوية العربي</text>
</svg>